<svg xmlns="http://www.w3.org/2000/svg" width="361" height="65" viewBox="0 0 361 65">
  <path fill="#F6291D" d="M0,57.7933262 L0,7.41657696 L6.29407207,1.11948332 L8.39209609,1.11948332 L8.39209609,49.5371367 L11.0495932,49.5371367 L11.0495932,24.2088267 L35.6664084,24.2088267 L35.6664084,49.5371367 L38.3239055,49.5371367 L38.3239055,1.11948332 L40.4219295,1.11948332 L40.4219295,51.4962325 L34.1278574,57.7933262 L27.2043781,57.7933262 L27.2043781,32.255113 L13.1476172,32.255113 L13.1476172,51.4962325 L6.85354514,57.7933262 L0,57.7933262 Z M35.6664084,1.11948332 L35.6664084,21.8299247 L11.0495932,21.8299247 L11.0495932,1.11948332 L13.1476172,1.11948332 L13.1476172,19.8708288 L27.2743123,19.8708288 L27.2743123,7.41657696 L33.5683843,1.11948332 L35.6664084,1.11948332 Z M61.9616428,1.11948332 L61.9616428,51.4962325 L55.6675707,57.7933262 L48.8140256,57.7933262 L48.8140256,7.41657696 L55.1080976,1.11948332 L57.2061217,1.11948332 L57.2061217,49.5371367 L59.8636188,49.5371367 L59.8636188,1.11948332 L61.9616428,1.11948332 Z M75.4589306,57.7233584 L79.8647811,43.6598493 L82.1026734,43.6598493 L76.7876792,59.6824543 L71.472685,65 L65.3184812,65 L68.6753196,49.9569429 L74.9693917,43.6598493 L77.1373499,43.6598493 L73.2909725,57.7233584 L75.4589306,57.7233584 Z M118.74816,1.11948332 L118.74816,51.4962325 L112.454088,57.7933262 L105.600542,57.7933262 L105.600542,7.41657696 L111.894614,1.11948332 L113.992639,1.11948332 L113.992639,49.5371367 L116.650136,49.5371367 L116.650136,1.11948332 L118.74816,1.11948332 Z M133.853933,15.1829925 L138.259783,1.11948332 L140.497675,1.11948332 L135.182681,17.1420883 L129.867687,22.459634 L123.713483,22.459634 L127.070322,7.41657696 L133.364394,1.11948332 L135.532352,1.11948332 L131.685974,15.1829925 L133.853933,15.1829925 Z M152.666215,4.19806243 L152.666215,49.5371367 L155.183843,49.5371367 L155.183843,11.8245425 L174.695467,38.2723358 L174.765401,38.2723358 L194.137156,11.8945102 L194.137156,49.5371367 L196.654785,49.5371367 L196.654785,4.19806243 L196.444983,4.19806243 L174.765401,34.0043057 L152.876017,4.19806243 L152.666215,4.19806243 Z M150.568191,0.629709365 L152.526346,0.629709365 L172.38764,27.2174381 L186.864006,7.69644779 L196.724719,0.629709365 L198.752809,0.629709365 L198.752809,51.4962325 L192.458737,57.7933262 L185.74506,57.7933262 L185.74506,26.6576964 L171.268694,46.5285253 L169.870012,46.5285253 L157.211933,29.7362756 L157.281867,51.4962325 L150.987795,57.7933262 L144.274119,57.7933262 L144.274119,6.92680301 L150.568191,0.629709365 Z M240.013948,47.9278794 C236.167571,47.9278794 233.230337,47.2981701 229.244091,45.4790097 L228.754552,47.8579117 C232.810732,49.6770721 236.237505,50.3067815 239.944014,50.3067815 C248.685781,50.3067815 254.280511,44.7093649 254.280511,37.9224973 C254.280511,31.8353068 251.20341,28.4768568 242.461643,23.0193757 C235.398295,18.6114101 233.649942,15.8826695 233.649942,12.3842842 C233.649942,8.32615716 236.517241,4.54790097 242.881248,4.54790097 C246.028284,4.54790097 249.944595,5.45748116 253.161565,7.13670614 L252.532158,9.16576964 L247.426966,14.34338 C245.049206,13.153929 242.531577,12.2443488 240.22375,12.2443488 C238.475397,12.2443488 237.426385,12.664155 236.866912,13.2238967 C236.587176,13.5037675 236.377373,13.9935414 236.377373,14.34338 C236.377373,15.6027987 237.286517,17.3519914 243.650523,21.270183 C252.182487,26.517761 256.378535,30.9257266 256.378535,37.9224973 C256.378535,43.6598493 252.811895,48.6975242 248.895583,52.6157158 C245.328942,56.1840689 240.293685,58.4930032 234.768888,58.4930032 C230.153235,58.4930032 225.887253,57.5134553 220.991864,55.3444564 L222.320612,48.5575888 L228.195079,42.6803014 C231.901589,44.4994618 235.468229,45.8288482 238.405463,45.8288482 C240.293685,45.8288482 241.06296,45.4790097 241.762301,44.7793326 C242.321775,44.219591 242.601511,43.3799785 242.601511,42.1905274 C242.601511,39.8116254 241.342697,37.2228202 234.139481,32.744887 C226.376792,27.9171152 223.509492,23.7190527 223.509492,18.0516685 C223.509492,14.0635091 225.117978,10.7050592 230.013367,5.8073197 C234.419217,1.39935414 238.545331,0.0699677072 243.021116,0.0699677072 C247.077296,0.0699677072 250.504068,0.909580194 254.42038,2.58880517 L253.790972,4.68783638 C250.084463,3.14854682 246.587757,2.16899892 242.951182,2.16899892 C235.538164,2.16899892 230.922511,6.99677072 230.922511,12.4542519 C230.922511,16.7922497 233.300271,20.2906351 241.06296,25.1184069 C249.385122,30.2960172 251.55308,33.2346609 251.55308,38.0624327 C251.55308,43.7997847 247.077296,47.9278794 240.013948,47.9278794 Z M282.953506,9.37567277 L293.723363,37.7125942 L271.624177,37.7125942 L282.953506,9.37567277 Z M283.932584,35.7534984 L279.386866,23.649085 L274.491476,35.7534984 L283.932584,35.7534984 Z M270.15556,47.6480086 L268.686943,51.4962325 L262.392871,57.7933262 L253.860907,57.7933262 L273.652267,8.39612487 L281.974429,0 L283.932584,0 L303.933747,51.4962325 L297.639675,57.7933262 L292.114878,57.7933262 L288.338435,47.6480086 L270.15556,47.6480086 Z M300.926579,49.5371367 L283.093375,2.868676 L282.813638,2.868676 L264.420961,49.5371367 L267.148392,49.5371367 L270.715033,40.0914962 L294.632507,40.0914962 L298.129213,49.5371367 L300.926579,49.5371367 Z M314.913406,4.19806243 L314.913406,49.5371367 L317.431034,49.5371367 L317.431034,11.8245425 L336.942658,38.2723358 L337.012592,38.2723358 L356.384347,11.8945102 L356.384347,49.5371367 L358.901976,49.5371367 L358.901976,4.19806243 L358.692174,4.19806243 L337.012592,34.0043057 L315.123208,4.19806243 L314.913406,4.19806243 Z M312.815382,0.629709365 L314.773537,0.629709365 L334.634831,27.2174381 L349.111197,7.69644779 L358.97191,0.629709365 L361,0.629709365 L361,51.4962325 L354.705928,57.7933262 L347.992251,57.7933262 L347.992251,26.6576964 L333.515885,46.5285253 L332.117203,46.5285253 L319.459124,29.7362756 L319.529059,51.4962325 L313.234986,57.7933262 L306.52131,57.7933262 L306.52131,6.92680301 L312.815382,0.629709365 Z"/>
</svg>
